<svg width="1280" height="832" viewBox="0 0 1280 832" fill="none" xmlns="http://www.w3.org/2000/svg">
<path d="M1019.43 801.261C699.426 745.94 663.719 517.932 448.213 324.096C228.12 126.134 -321.65 506.214 -170.271 -191.355C-18.8916 -888.924 1580.25 -273.027 1580.25 -273.027L1608.67 819.277C1608.67 819.277 1547.3 789.044 1423.03 782.431C1232.44 772.288 1157.93 825.203 1019.43 801.261Z" fill="url(#paint0_linear_19_28)"/>
<path d="M428.986 213.91C240.218 71.5022 -49.234 332.613 -93.7979 -104.981L1584.84 -183.299L1659.31 809.032C1659.31 809.032 1504.77 688.455 1383.19 653.139C1205.43 601.507 1082.06 724.382 903.292 675.529C640.399 603.69 640.502 373.479 428.986 213.91Z" fill="url(#paint1_linear_19_28)"/>
<defs>
<linearGradient id="paint0_linear_19_28" x1="1003.78" y1="250.159" x2="817.898" y2="870.591" gradientUnits="userSpaceOnUse">
<stop stop-color="white"/>
<stop offset="1" stop-color="#FFD580"/>
</linearGradient>
<linearGradient id="paint1_linear_19_28" x1="1235.11" y1="291.325" x2="815.271" y2="713.134" gradientUnits="userSpaceOnUse">
<stop stop-color="#FFA500"/>
<stop offset="1" stop-color="#FFD580"/>
</linearGradient>
</defs>
</svg>
