<svg width="1440" height="960" viewBox="0 0 1440 960" fill="none" xmlns="http://www.w3.org/2000/svg">
<path d="M989.244 910.661C672.163 834.052 647.122 583.59 440.883 361.244C230.255 134.165 -336.631 520.676 -152.906 -232.33C30.819 -985.337 1599.52 -232.33 1599.52 -232.33L1577 960.288C1577 960.288 1517.1 924.195 1393.28 910.661C1203.37 889.904 1126.47 943.817 989.244 910.661Z" fill="url(#paint0_linear_16_94)"/>
<path d="M426.813 240.106C244.886 75.2041 -56.4201 345.222 -80.5415 -134.248H1599.92L1628.06 951.691C1628.06 951.691 1479.31 812.338 1359.51 767.64C1184.35 702.29 1055.39 830.01 879.089 767.64C619.83 675.923 630.662 424.88 426.813 240.106Z" fill="url(#paint1_linear_16_94)"/>
<defs>
<linearGradient id="paint0_linear_16_94" x1="999.294" y1="308.881" x2="748.81" y2="962.255" gradientUnits="userSpaceOnUse">
<stop stop-color="white"/>
<stop offset="1" stop-color="#FFD580"/>
</linearGradient>
<linearGradient id="paint1_linear_16_94" x1="1228.45" y1="365.542" x2="754.657" y2="762.712" gradientUnits="userSpaceOnUse">
<stop stop-color="#FFA500"/>
<stop offset="1" stop-color="#FFD580"/>
</linearGradient>
</defs>
</svg>
